<mxfile host="app.diagrams.net" agent="Mozilla/5.0 (Macintosh; Intel Mac OS X 10_15_7) AppleWebKit/537.36 (KHTML, like Gecko) Chrome/131.0.0.0 Safari/537.36" version="26.0.2">
  <diagram name="Page-1" id="Page-1">
    <mxGraphModel dx="993" dy="565" grid="1" gridSize="10" guides="1" tooltips="1" connect="1" arrows="1" fold="1" page="1" pageScale="1" pageWidth="1100" pageHeight="850" math="0" shadow="0">
      <root>
        <mxCell id="0" />
        <mxCell id="1" parent="0" />
        <UserObject label="" tags="Container" id="2">
          <mxCell style="vsdxID=2;fillColor=none;gradientColor=none;dashed=1;strokeColor=none;strokeWidth=2;spacingLeft=1;spacingRight=1;points=[[0.25,0,0],[0.5,0,0],[0.75,0,0],[1,0.25,0],[1,0.5,0],[1,0.75,0],[0.75,0.99,0],[0.5,0.99,0],[0.25,0.99,0],[0.25,0.75,0],[0.25,0.5,0],[0.25,0.25,0]];labelBackgroundColor=none;rounded=0;html=1;whiteSpace=wrap;fontFamily=Garamond;" parent="1" vertex="1">
            <mxGeometry x="348" y="369" width="697" height="311" as="geometry" />
          </mxCell>
        </UserObject>
        <mxCell id="3" style="vsdxID=3;fillColor=#f2f2f2;gradientColor=none;shape=stencil(UzV2Ls5ILEhVNTIoLinKz04tz0wpyVA1dlE1MsrMy0gtyiwBslSNXVWNndPyi1LTi/JL81Ig/IJEkEoQKze/DGRCBUSfAUiHkUElhGdoAOG7QZTmZOYhKTWlkVqYJFmKiXcDVVSSqRDNS0AGIj7SMnNyINGJLI8ef0AhSNwbuwIA);dashed=1;strokeColor=#000000;spacingLeft=1;spacingRight=1;points=[[0.25,0,0],[0.5,0,0],[0.75,0,0],[1,0.25,0],[1,0.5,0],[1,0.75,0],[0.75,1,0],[0.5,1,0],[0.25,1,0],[0,0.75,0],[0,0.5,0],[0,0.25,0]];labelBackgroundColor=none;rounded=0;html=1;whiteSpace=wrap;fontFamily=Garamond;" parent="2" vertex="1">
          <mxGeometry width="697" height="311" as="geometry" />
        </mxCell>
        <mxCell id="4" value="&lt;div style=&quot;font-size: 1px&quot;&gt;&lt;p style=&quot;text-align:center;margin-left:0;margin-right:0;margin-top:0px;margin-bottom:0px;text-indent:0;vertical-align:middle;direction:ltr;&quot;&gt;&lt;/p&gt;&lt;/div&gt;" style="text;vsdxID=3;fillColor=none;gradientColor=none;dashed=1;strokeColor=none;spacingLeft=1;spacingRight=1;points=[[0.25,0,0],[0.5,0,0],[0.75,0,0],[1,0.25,0],[1,0.5,0],[1,0.75,0],[0.75,1,0],[0.5,1,0],[0.25,1,0],[0,0.75,0],[0,0.5,0],[0,0.25,0]];labelBackgroundColor=none;rounded=0;html=1;whiteSpace=wrap;verticalAlign=middle;align=center;overflow=width;;html=1;fontFamily=Garamond;" parent="3" vertex="1">
          <mxGeometry y="-0.22" width="697.02" height="311.22" as="geometry" />
        </mxCell>
        <UserObject label="&lt;div style=&quot;&quot;&gt;&lt;p style=&quot;text-align: center; margin: 0px; text-indent: 0px; vertical-align: middle; direction: ltr;&quot;&gt;&lt;font style=&quot;color: rgb(0, 0, 0); direction: ltr; letter-spacing: 0px; line-height: 120%; opacity: 1; font-size: 14px;&quot;&gt;&lt;br&gt;&lt;/font&gt;&lt;/p&gt;&lt;p style=&quot;text-align: center; margin: 0px; text-indent: 0px; vertical-align: middle; direction: ltr;&quot;&gt;&lt;font style=&quot;color: rgb(0, 0, 0); direction: ltr; letter-spacing: 0px; line-height: 120%; opacity: 1; font-size: 16px;&quot;&gt;Word2Vec&lt;br&gt;model&lt;/font&gt;&lt;font style=&quot;font-size: 12.7px; color: rgb(0, 0, 0); direction: ltr; letter-spacing: 0px; line-height: 120%; opacity: 1;&quot;&gt;&lt;br&gt;&lt;/font&gt;&lt;/p&gt;&lt;/div&gt;" tags="Network" id="18">
          <mxCell style="verticalAlign=middle;align=center;overflow=width;vsdxID=136;fillColor=#deebf6;gradientColor=none;shape=stencil(tVPLEoIwDPyaHmFKK+od9T86UqBjbZm0Cv69rcUHIAdkvG2SzWZ2kiCamYrVHBFsLOgTb0RuK0R3iBChKg7COoToHtGs0MBL0BeVh7hmnunRWV+9Qhv6sO8g+BaiZB2nm0fmEMhSqEnylsYr+klmcHRV6Mhpx4aR9lMuwVOCuI1YK0wE2jIrtOqNlwxKHrlhUSFZ2SuZhvN6lP7qZTh8ZH2umym5v3hx4L3RQkgZDuJV/3HdSze4wHUy1/XAsQPDm3ep8C90fwc=);strokeColor=#000000;spacingTop=-3;spacingBottom=-3;spacingLeft=-3;spacingRight=-3;points=[[0.5,0.17,0],[0.5,0.5,0],[1,0.5,0],[0.5,0.5,0],[0.5,0.5,0],[0.5,0,0],[-3.25,2.04,0]];labelBackgroundColor=none;rounded=0;html=1;whiteSpace=wrap;fontFamily=Garamond;" parent="3" vertex="1">
            <mxGeometry x="231.5" y="79" width="83" height="63" as="geometry" />
          </mxCell>
        </UserObject>
        <mxCell id="99" style="fontFamily=Garamond;" parent="3" vertex="1">
          <mxGeometry x="71.5" y="50" as="geometry" />
        </mxCell>
        <mxCell id="123" style="fontFamily=Garamond;" parent="3" vertex="1">
          <mxGeometry x="273.5" y="49" as="geometry" />
        </mxCell>
        <UserObject label="" tags="Connector" id="124">
          <mxCell style="vsdxID=156;edgeStyle=none;startArrow=none;endArrow=block;startSize=5;endSize=5;strokeColor=#000000;spacingTop=0;spacingBottom=0;spacingLeft=0;spacingRight=0;verticalAlign=middle;html=1;labelBackgroundColor=none;rounded=0;exitX=0.5060240963855421;exitY=0;exitDx=0;exitDy=0;exitPerimeter=0;fontFamily=Garamond;" parent="3" source="18" target="123" edge="1">
            <mxGeometry relative="1" as="geometry">
              <mxPoint x="12" y="-1" as="offset" />
              <Array as="points" />
            </mxGeometry>
          </mxCell>
        </UserObject>
        <mxCell id="7" value="&lt;div&gt;&lt;p style=&quot;text-align: center; margin: 0px; text-indent: 0px; vertical-align: middle; direction: ltr;&quot;&gt;&lt;font style=&quot;color: rgb(0, 0, 0); direction: ltr; letter-spacing: 0px; line-height: 120%; opacity: 1;&quot;&gt;&lt;b&gt;&lt;font&gt;Natural Language Underestanding&lt;/font&gt;&lt;/b&gt;&lt;br&gt;&lt;/font&gt;&lt;/p&gt;&lt;/div&gt;" style="text;vsdxID=5;fillColor=none;gradientColor=none;dashed=1;strokeColor=none;strokeWidth=2;spacingLeft=1;spacingRight=1;points=[[0.25,0,0],[0.5,0,0],[0.75,0,0],[1,0.25,0],[1,0.5,0],[1,0.75,0],[0.75,1,0],[0.5,1,0],[0.25,1,0],[0,0.75,0],[0,0.5,0],[0,0.25,0]];labelBackgroundColor=none;rounded=0;html=1;whiteSpace=wrap;verticalAlign=middle;align=center;overflow=width;;html=1;fontFamily=Garamond;fontSize=20;" parent="3" vertex="1">
          <mxGeometry y="261" width="692.02" height="50" as="geometry" />
        </mxCell>
        <mxCell id="5" style="vsdxID=5;fillColor=none;gradientColor=none;dashed=1;strokeColor=none;strokeWidth=2;spacingLeft=1;spacingRight=1;points=[[0.25,0,0],[0.5,0,0],[0.75,0,0],[1,0.25,0],[1,0.5,0],[1,0.75,0],[0.75,1,0],[0.5,1,0],[0.25,1,0],[0,0.75,0],[0,0.5,0],[0,0.25,0]];labelBackgroundColor=none;rounded=0;html=1;whiteSpace=wrap;fontFamily=Garamond;" parent="2" vertex="1">
          <mxGeometry y="273" width="697" height="38" as="geometry" />
        </mxCell>
        <mxCell id="6" value="&lt;div style=&quot;font-size: 1px&quot;&gt;&lt;/div&gt;" style="verticalAlign=middle;align=center;overflow=width;vsdxID=6;fillColor=none;gradientColor=none;strokeColor=none;strokeWidth=2;points=[[0.25,0,0],[0.5,0,0],[0.75,0,0],[1,0.25,0],[1,0.5,0],[1,0.75,0],[0.75,1,0],[0.5,1,0],[0.25,1,0],[0,0.75,0],[0,0.5,0],[0,0.25,0]];labelBackgroundColor=none;rounded=0;html=1;whiteSpace=wrap;fontFamily=Garamond;" parent="5" vertex="1">
          <mxGeometry width="697" height="38" as="geometry" />
        </mxCell>
        <UserObject label="" tags="Container" id="8">
          <mxCell style="vsdxID=7;fillColor=none;gradientColor=none;dashed=1;strokeColor=none;strokeWidth=2;spacingLeft=1;spacingRight=1;points=[[0.25,0,0],[0.5,0,0],[0.75,0,0],[1,0.25,0],[1,0.5,0],[1,0.75,0],[0.75,0.75,0],[0.5,0.75,0],[0.25,0.75,0],[0.25,0.75,0],[0.25,0.5,0],[0.25,0.25,0]];labelBackgroundColor=none;rounded=0;html=1;whiteSpace=wrap;fontFamily=Garamond;" parent="1" vertex="1">
            <mxGeometry x="349" y="120" width="697.02" height="231" as="geometry" />
          </mxCell>
        </UserObject>
        <mxCell id="9" style="vsdxID=8;fillColor=#f2f2f2;gradientColor=none;shape=stencil(UzV2Ls5ILEhVNTIoLinKz04tz0wpyVA1dlE1MsrMy0gtyiwBslSNXVWNndPyi1LTi/JL81Ig/IJEkEoQKze/DGRCBUSfAUiHkUElhGdoAOG7QZTmZOYhKTWlkVqYJFmKiXcDVVSSqRDNS0AGIj7SMnNyINGJLI8ef0AhSNwbuwIA);dashed=1;strokeColor=#000000;points=[[0.25,0,0],[0.5,0,0],[0.75,0,0],[1,0.25,0],[1,0.5,0],[1,0.75,0],[0.75,1,0],[0.5,1,0],[0.25,1,0],[0,0.75,0],[0,0.5,0],[0,0.25,0]];labelBackgroundColor=none;rounded=0;html=1;whiteSpace=wrap;fontFamily=Garamond;" parent="8" vertex="1">
          <mxGeometry width="697.02" height="231" as="geometry" />
        </mxCell>
        <mxCell id="10" value="&lt;div style=&quot;font-size: 1px&quot;&gt;&lt;p style=&quot;text-align:center;margin-left:0;margin-right:0;margin-top:0px;margin-bottom:0px;text-indent:0;vertical-align:middle;direction:ltr;&quot;&gt;&lt;/p&gt;&lt;/div&gt;" style="text;vsdxID=8;fillColor=none;gradientColor=none;dashed=1;strokeColor=none;points=[[0.25,0,0],[0.5,0,0],[0.75,0,0],[1,0.25,0],[1,0.5,0],[1,0.75,0],[0.75,1,0],[0.5,1,0],[0.25,1,0],[0,0.75,0],[0,0.5,0],[0,0.25,0]];labelBackgroundColor=none;rounded=0;html=1;whiteSpace=wrap;verticalAlign=middle;align=center;overflow=width;;html=1;fontFamily=Garamond;" parent="9" vertex="1">
          <mxGeometry y="18.40637450199203" width="697.02" height="212.59362549800795" as="geometry" />
        </mxCell>
        <mxCell id="o7ViBReji3FSx2XDsB9Z-133" value="&lt;font style=&quot;font-size: 18px;&quot;&gt;Response Generation Engine&amp;nbsp;&lt;/font&gt;" style="rounded=0;whiteSpace=wrap;html=1;fillColor=#FBE5D5;fontFamily=Garamond;fontSize=16;" parent="9" vertex="1">
          <mxGeometry x="75.5" y="64" width="120" height="70.17" as="geometry" />
        </mxCell>
        <UserObject label="&lt;div style=&quot;&quot;&gt;&lt;p style=&quot;text-align: left; margin: 0px; text-indent: 0px; vertical-align: top; direction: ltr;&quot;&gt;&lt;b style=&quot;&quot;&gt;&lt;font style=&quot;font-size: 20px;&quot;&gt;&lt;font style=&quot;color: rgb(0, 0, 0); direction: ltr; letter-spacing: 0px; line-height: 120%; opacity: 1;&quot;&gt;Dialogue&lt;/font&gt;&lt;font style=&quot;color: rgb(0, 0, 0); direction: ltr; letter-spacing: 0px; line-height: 120%; opacity: 1;&quot;&gt; Manager&lt;/font&gt;&lt;/font&gt;&lt;/b&gt;&lt;font style=&quot;font-size: 19.76px; color: rgb(60, 102, 140); direction: ltr; letter-spacing: 0px; line-height: 120%; opacity: 1;&quot;&gt;&lt;br&gt;&lt;/font&gt;&lt;/p&gt;&lt;/div&gt;" tags="Background" id="28">
          <mxCell style="verticalAlign=top;align=left;overflow=width;vsdxID=198;fillColor=none;gradientColor=none;shape=stencil(nZBLDoAgDERP0z3SIyjew0SURgSD+Lu9kMZoXLhwN9O+tukAlrNpJg1SzDH4QW/URgNYgZTkjA4UkwJUgGXng+6DX1zLfmoymdXo17xh5zmRJ6Q42BWCfc2oJfdAr+Yv+AP9Cb7OJ3H/2JG1HNGz/84klThPVCc=);strokeColor=none;strokeWidth=2;points=[];labelBackgroundColor=none;rounded=0;html=1;whiteSpace=wrap;fontFamily=Garamond;" parent="9" vertex="1">
            <mxGeometry x="258.51" y="10" width="180" height="28" as="geometry" />
          </mxCell>
        </UserObject>
        <mxCell id="11" style="vsdxID=10;fillColor=none;gradientColor=none;dashed=1;strokeColor=none;strokeWidth=2;spacingLeft=1;spacingRight=1;points=[[0.25,0,0],[0.5,0,0],[0.75,0,0],[1,0.25,0],[1,0.5,0],[1,0.75,0],[0.75,1,0],[0.5,1,0],[0.25,1,0],[0,0.75,0],[0,0.5,0],[0,0.25,0]];labelBackgroundColor=none;rounded=0;html=1;whiteSpace=wrap;fontFamily=Garamond;" parent="8" vertex="1">
          <mxGeometry width="697" height="0.7524429967426709" as="geometry" />
        </mxCell>
        <mxCell id="12" value="&lt;div style=&quot;font-size: 1px&quot;&gt;&lt;/div&gt;" style="verticalAlign=middle;align=center;overflow=width;vsdxID=11;fillColor=none;gradientColor=none;strokeColor=none;strokeWidth=2;points=[[0.25,0,0],[0.5,0,0],[0.75,0,0],[1,0.25,0],[1,0.5,0],[1,0.75,0],[0.75,1,0],[0.5,1,0],[0.25,1,0],[0,0.75,0],[0,0.5,0],[0,0.25,0]];labelBackgroundColor=none;rounded=0;html=1;whiteSpace=wrap;fontFamily=Garamond;" parent="11" vertex="1">
          <mxGeometry y="0.7524429967426709" width="697" height="0.7524429967426709" as="geometry" />
        </mxCell>
        <UserObject label="&lt;div style=&quot;&quot;&gt;&lt;p style=&quot;text-align: center; margin: 0px; text-indent: 0px; vertical-align: middle; direction: ltr;&quot;&gt;&lt;font style=&quot;color: rgb(0, 0, 0); direction: ltr; letter-spacing: 0px; line-height: 120%; opacity: 1; font-size: 18px;&quot;&gt;Entity Calssifier&lt;/font&gt;&lt;font style=&quot;font-size: 16.93px; color: rgb(0, 0, 0); direction: ltr; letter-spacing: 0px; line-height: 120%; opacity: 1;&quot;&gt;&lt;br&gt;&lt;/font&gt;&lt;/p&gt;&lt;/div&gt;" tags="Background" id="14">
          <mxCell style="verticalAlign=middle;align=center;overflow=width;vsdxID=64;fillColor=#fbe5d5;gradientColor=none;shape=stencil(nZBLDoAgDERP0z3SIyjew0SURgSD+Lu9kMZoXLhwN9O+tukAlrNpJg1SzDH4QW/URgNYgZTkjA4UkwJUgGXng+6DX1zLfmoymdXo17xh5zmRJ6Q42BWCfc2oJfdAr+Yv+AP9Cb7OJ3H/2JG1HNGz/84klThPVCc=);strokeColor=#000000;points=[[0.75,1,0],[1,0.5,0],[0.5,0,0],[0,0.5,0],[0.5,0.5,0],[0.31,1,0],[0.28,4.56,0]];labelBackgroundColor=none;rounded=0;html=1;whiteSpace=wrap;fontFamily=Garamond;" parent="1" vertex="1">
            <mxGeometry x="667" y="382" width="152" height="36" as="geometry" />
          </mxCell>
        </UserObject>
        <UserObject label="&lt;div style=&quot;&quot;&gt;&lt;p style=&quot;text-align: center; margin: 0px; text-indent: 0px; vertical-align: middle; direction: ltr;&quot;&gt;&lt;font style=&quot;font-size: 18px;&quot;&gt;&lt;font style=&quot;color: rgb(0, 0, 0); direction: ltr; letter-spacing: 0px; line-height: 120%; opacity: 1;&quot;&gt;Domain&lt;/font&gt;&lt;font style=&quot;color: rgb(0, 0, 0); direction: ltr; letter-spacing: 0px; line-height: 120%; opacity: 1;&quot;&gt; &lt;/font&gt;&lt;font style=&quot;color: rgb(0, 0, 0); direction: ltr; letter-spacing: 0px; line-height: 120%; opacity: 1;&quot;&gt;C&lt;/font&gt;&lt;font style=&quot;color: rgb(0, 0, 0); direction: ltr; letter-spacing: 0px; line-height: 120%; opacity: 1;&quot;&gt;lassifier&lt;/font&gt;&lt;/font&gt;&lt;font style=&quot;font-size: 16.93px; color: rgb(0, 0, 0); direction: ltr; letter-spacing: 0px; line-height: 120%; opacity: 1;&quot;&gt;&lt;br&gt;&lt;/font&gt;&lt;/p&gt;&lt;/div&gt;" tags="Background" id="15">
          <mxCell style="verticalAlign=middle;align=center;overflow=width;vsdxID=65;fillColor=#fbe5d5;gradientColor=none;shape=stencil(nZBLDoAgDERP0z3SIyjew0SURgSD+Lu9kMZoXLhwN9O+tukAlrNpJg1SzDH4QW/URgNYgZTkjA4UkwJUgGXng+6DX1zLfmoymdXo17xh5zmRJ6Q42BWCfc2oJfdAr+Yv+AP9Cb7OJ3H/2JG1HNGz/84klThPVCc=);strokeColor=#000000;points=[[0.85,1,0],[1,0.5,0],[0.5,0,0],[0,0.5,0],[0.5,0.5,0],[0.29,1,0]];labelBackgroundColor=none;rounded=0;html=1;whiteSpace=wrap;fontFamily=Garamond;" parent="1" vertex="1">
            <mxGeometry x="497" y="382" width="152" height="36" as="geometry" />
          </mxCell>
        </UserObject>
        <UserObject label="&lt;div style=&quot;&quot;&gt;&lt;p style=&quot;text-align: center; margin: 0px; text-indent: 0px; vertical-align: middle; direction: ltr;&quot;&gt;&lt;font style=&quot;color: rgb(0, 0, 0); direction: ltr; letter-spacing: 0px; line-height: 120%; opacity: 1; font-size: 16px;&quot;&gt;&lt;br&gt;&lt;/font&gt;&lt;/p&gt;&lt;p style=&quot;text-align: center; margin: 0px; text-indent: 0px; vertical-align: middle; direction: ltr;&quot;&gt;&lt;font style=&quot;color: rgb(0, 0, 0); direction: ltr; letter-spacing: 0px; line-height: 120%; opacity: 1; font-size: 16px;&quot;&gt;en_core_web_sm model&lt;/font&gt;&lt;font style=&quot;font-size: 12.7px; color: rgb(0, 0, 0); direction: ltr; letter-spacing: 0px; line-height: 120%; opacity: 1;&quot;&gt;&lt;br&gt;&lt;/font&gt;&lt;/p&gt;&lt;/div&gt;" tags="Network" id="16">
          <mxCell style="verticalAlign=middle;align=center;overflow=width;vsdxID=68;fillColor=#deebf6;gradientColor=none;shape=stencil(tVPLEoIwDPyaHmFKK+od9T86UqBjbZm0Cv69rcUHIAdkvG2SzWZ2kiCamYrVHBFsLOgTb0RuK0R3iBChKg7COoToHtGs0MBL0BeVh7hmnunRWV+9Qhv6sO8g+BaiZB2nm0fmEMhSqEnylsYr+klmcHRV6Mhpx4aR9lMuwVOCuI1YK0wE2jIrtOqNlwxKHrlhUSFZ2SuZhvN6lP7qZTh8ZH2umym5v3hx4L3RQkgZDuJV/3HdSze4wHUy1/XAsQPDm3ep8C90fwc=);strokeColor=#000000;spacingTop=-3;spacingBottom=-3;spacingLeft=-3;spacingRight=-3;points=[[0.5,0.17,0],[0.5,0.5,0],[1,0.5,0],[0.5,0.5,0],[0.5,0.5,0],[0.5,0,0]];labelBackgroundColor=none;rounded=0;html=1;whiteSpace=wrap;fontFamily=Garamond;" parent="1" vertex="1">
            <mxGeometry x="901" y="440" width="91" height="63" as="geometry" />
          </mxCell>
        </UserObject>
        <UserObject label="&lt;div style=&quot;&quot;&gt;&lt;p style=&quot;text-align: center; margin: 0px; text-indent: 0px; vertical-align: middle; direction: ltr;&quot;&gt;&lt;font style=&quot;color: rgb(0, 0, 0); direction: ltr; letter-spacing: 0px; line-height: 120%; opacity: 1; font-size: 16px;&quot;&gt;&lt;br&gt;&lt;/font&gt;&lt;/p&gt;&lt;p style=&quot;text-align: center; margin: 0px; text-indent: 0px; vertical-align: middle; direction: ltr;&quot;&gt;&lt;font style=&quot;color: rgb(0, 0, 0); direction: ltr; letter-spacing: 0px; line-height: 120%; opacity: 1; font-size: 16px;&quot;&gt;OntoNotes5 model&lt;/font&gt;&lt;font style=&quot;font-size: 12.7px; color: rgb(0, 0, 0); direction: ltr; letter-spacing: 0px; line-height: 120%; opacity: 1;&quot;&gt;&lt;br&gt;&lt;/font&gt;&lt;/p&gt;&lt;/div&gt;" tags="Network" id="17">
          <mxCell style="verticalAlign=middle;align=center;overflow=width;vsdxID=69;fillColor=#deebf6;gradientColor=none;shape=stencil(tVPLEoIwDPyaHmFKK+od9T86UqBjbZm0Cv69rcUHIAdkvG2SzWZ2kiCamYrVHBFsLOgTb0RuK0R3iBChKg7COoToHtGs0MBL0BeVh7hmnunRWV+9Qhv6sO8g+BaiZB2nm0fmEMhSqEnylsYr+klmcHRV6Mhpx4aR9lMuwVOCuI1YK0wE2jIrtOqNlwxKHrlhUSFZ2SuZhvN6lP7qZTh8ZH2umym5v3hx4L3RQkgZDuJV/3HdSze4wHUy1/XAsQPDm3ep8C90fwc=);strokeColor=#000000;spacingTop=-3;spacingBottom=-3;spacingLeft=-3;spacingRight=-3;points=[[0.5,0.17,0],[0.5,0.5,0],[1,0.5,0],[0.5,0.5,0],[0.5,0.5,0],[0.5,0,0]];labelBackgroundColor=none;rounded=0;html=1;whiteSpace=wrap;fontFamily=Garamond;" parent="1" vertex="1">
            <mxGeometry x="746" y="448" width="83" height="63" as="geometry" />
          </mxCell>
        </UserObject>
        <UserObject label="&lt;div style=&quot;font-size: 1px&quot;&gt;&lt;/div&gt;" tags="Background" id="19">
          <mxCell style="verticalAlign=bottom;align=center;overflow=width;vsdxID=141;fillColor=#FBE5D5;gradientColor=none;shape=stencil(nZBLDoAgDERP0z3SIyjew0SURgSD+Lu9kMZoXLhwN9O+tukAlrNpJg1SzDH4QW/URgNYgZTkjA4UkwJUgGXng+6DX1zLfmoymdXo17xh5zmRJ6Q42BWCfc2oJfdAr+Yv+AP9Cb7OJ3H/2JG1HNGz/84klThPVCc=);strokeColor=#000000;points=[[0.5,1,0],[1,0.5,0],[0.43,0,0],[0,0.5,0],[0.5,0.5,0]];labelBackgroundColor=none;rounded=0;html=1;whiteSpace=wrap;fontFamily=Garamond;" parent="1" vertex="1">
            <mxGeometry x="372" y="535" width="622" height="95" as="geometry" />
          </mxCell>
        </UserObject>
        <UserObject label="&lt;div style=&quot;font-size: 1px&quot;&gt;&lt;font style=&quot;font-size: 16.93px; color: rgb(0, 0, 0); direction: ltr; letter-spacing: 0px; line-height: 120%; opacity: 1;&quot;&gt;Tokenizing &lt;/font&gt;&lt;font style=&quot;font-size: 16.93px; color: rgb(0, 0, 0); direction: ltr; letter-spacing: 0px; line-height: 120%; opacity: 1;&quot;&gt;&lt;br&gt;&lt;/font&gt;&lt;/div&gt;" tags="Background" id="20">
          <mxCell style="verticalAlign=middle;align=center;overflow=width;vsdxID=60;shape=stencil(nZBLDoAgDERP0z3SIyjew0SURgSD+Lu9kMZoXLhwN9O+tukAlrNpJg1SzDH4QW/URgNYgZTkjA4UkwJUgGXng+6DX1zLfmoymdXo17xh5zmRJ6Q42BWCfc2oJfdAr+Yv+AP9Cb7OJ3H/2JG1HNGz/84klThPVCc=);points=[[0.5,1,0],[1,0.5,0],[0.5,0,0],[0,0.5,0],[0.5,0.5,0]];labelBackgroundColor=none;rounded=0;html=1;whiteSpace=wrap;fontFamily=Garamond;" parent="1" vertex="1">
            <mxGeometry x="437" y="553" width="95" height="38" as="geometry" />
          </mxCell>
        </UserObject>
        <UserObject label="&lt;div style=&quot;font-size: 1px&quot;&gt;&lt;font style=&quot;font-size: 16.93px; color: rgb(0, 0, 0); direction: ltr; letter-spacing: 0px; line-height: 120%; opacity: 1;&quot;&gt;POS tagging&lt;/font&gt;&lt;font style=&quot;font-size: 16.93px; color: rgb(0, 0, 0); direction: ltr; letter-spacing: 0px; line-height: 120%; opacity: 1;&quot;&gt;&lt;br&gt;&lt;/font&gt;&lt;/div&gt;" tags="Background" id="21">
          <mxCell style="verticalAlign=middle;align=center;overflow=width;vsdxID=62;shape=stencil(nZBLDoAgDERP0z3SIyjew0SURgSD+Lu9kMZoXLhwN9O+tukAlrNpJg1SzDH4QW/URgNYgZTkjA4UkwJUgGXng+6DX1zLfmoymdXo17xh5zmRJ6Q42BWCfc2oJfdAr+Yv+AP9Cb7OJ3H/2JG1HNGz/84klThPVCc=);points=[[0.5,1,0],[1,0.5,0],[0.5,0,0],[0,0.5,0],[0.5,0.5,0]];labelBackgroundColor=none;rounded=0;html=1;whiteSpace=wrap;fontFamily=Garamond;" parent="1" vertex="1">
            <mxGeometry x="672" y="553" width="108" height="38" as="geometry" />
          </mxCell>
        </UserObject>
        <UserObject label="&lt;div style=&quot;font-size: 1px&quot;&gt;&lt;font style=&quot;font-size: 16.93px; color: rgb(0, 0, 0); direction: ltr; letter-spacing: 0px; line-height: 120%; opacity: 1;&quot;&gt;Lemmatization&lt;/font&gt;&lt;font style=&quot;font-size: 16.93px; color: rgb(0, 0, 0); direction: ltr; letter-spacing: 0px; line-height: 120%; opacity: 1;&quot;&gt;&lt;br&gt;&lt;/font&gt;&lt;/div&gt;" tags="Background" id="22">
          <mxCell style="verticalAlign=middle;align=center;overflow=width;vsdxID=79;shape=stencil(nZBLDoAgDERP0z3SIyjew0SURgSD+Lu9kMZoXLhwN9O+tukAlrNpJg1SzDH4QW/URgNYgZTkjA4UkwJUgGXng+6DX1zLfmoymdXo17xh5zmRJ6Q42BWCfc2oJfdAr+Yv+AP9Cb7OJ3H/2JG1HNGz/84klThPVCc=);points=[[0.5,1,0],[1,0.5,0],[0.5,0,0],[0,0.5,0],[0.5,0.5,0]];labelBackgroundColor=none;rounded=0;html=1;whiteSpace=wrap;fontFamily=Garamond;" parent="1" vertex="1">
            <mxGeometry x="802" y="553" width="124" height="38" as="geometry" />
          </mxCell>
        </UserObject>
        <UserObject label="&lt;div style=&quot;&quot;&gt;&lt;p style=&quot;text-align: center; margin: 0px; text-indent: 0px; vertical-align: middle; direction: ltr;&quot;&gt;&lt;font style=&quot;color: rgb(0, 0, 0); direction: ltr; letter-spacing: 0px; line-height: 120%; opacity: 1; font-size: 20px;&quot;&gt;Preprocessing Unit&lt;/font&gt;&lt;font style=&quot;font-size: 25.4px; color: rgb(0, 0, 0); direction: ltr; letter-spacing: 0px; line-height: 120%; opacity: 1;&quot;&gt;&lt;br&gt;&lt;/font&gt;&lt;/p&gt;&lt;/div&gt;" tags="Background" id="23">
          <mxCell style="verticalAlign=middle;align=center;overflow=width;vsdxID=145;fillColor=none;gradientColor=none;shape=stencil(nZBLDoAgDERP0z3SIyjew0SURgSD+Lu9kMZoXLhwN9O+tukAlrNpJg1SzDH4QW/URgNYgZTkjA4UkwJUgGXng+6DX1zLfmoymdXo17xh5zmRJ6Q42BWCfc2oJfdAr+Yv+AP9Cb7OJ3H/2JG1HNGz/84klThPVCc=);strokeColor=none;strokeWidth=2;points=[];labelBackgroundColor=none;rounded=0;html=1;whiteSpace=wrap;fontFamily=Garamond;" parent="1" vertex="1">
            <mxGeometry x="596" y="596" width="180" height="29" as="geometry" />
          </mxCell>
        </UserObject>
        <UserObject label="&lt;div style=&quot;font-size: 1px&quot;&gt;&lt;font style=&quot;font-size: 16.93px; color: rgb(0, 0, 0); direction: ltr; letter-spacing: 0px; line-height: 120%; opacity: 1;&quot;&gt;Stop-words removal&lt;/font&gt;&lt;font style=&quot;font-size: 16.93px; color: rgb(0, 0, 0); direction: ltr; letter-spacing: 0px; line-height: 120%; opacity: 1;&quot;&gt;&lt;br&gt;&lt;/font&gt;&lt;/div&gt;" tags="Background" id="24">
          <mxCell style="verticalAlign=middle;align=center;overflow=width;vsdxID=147;shape=stencil(nZBLDoAgDERP0z3SIyjew0SURgSD+Lu9kMZoXLhwN9O+tukAlrNpJg1SzDH4QW/URgNYgZTkjA4UkwJUgGXng+6DX1zLfmoymdXo17xh5zmRJ6Q42BWCfc2oJfdAr+Yv+AP9Cb7OJ3H/2JG1HNGz/84klThPVCc=);points=[[0.5,1,0],[1,0.5,0],[0.5,0,0],[0,0.5,0],[0.5,0.5,0]];labelBackgroundColor=none;rounded=0;html=1;whiteSpace=wrap;fontFamily=Garamond;" parent="1" vertex="1">
            <mxGeometry x="555" y="553" width="95" height="38" as="geometry" />
          </mxCell>
        </UserObject>
        <UserObject label="" tags="Connector" id="131">
          <mxCell style="vsdxID=159;edgeStyle=none;startArrow=none;endArrow=block;startSize=5;endSize=5;strokeColor=#000000;spacingTop=0;spacingBottom=0;spacingLeft=0;spacingRight=0;verticalAlign=middle;html=1;labelBackgroundColor=none;rounded=0;fontFamily=Garamond;" parent="1" edge="1">
            <mxGeometry relative="1" as="geometry">
              <mxPoint x="12" y="-1" as="offset" />
              <Array as="points" />
              <mxPoint x="711" y="537" as="sourcePoint" />
              <mxPoint x="711" y="420" as="targetPoint" />
            </mxGeometry>
          </mxCell>
        </UserObject>
        <UserObject label="&lt;div style=&quot;font-size: 1px&quot;&gt;&lt;font style=&quot;font-size: 19.76px; color: rgb(0, 0, 0); direction: ltr; letter-spacing: 0px; line-height: 120%; opacity: 1;&quot;&gt;Data analyser &lt;br&gt;&lt;/font&gt;&lt;/div&gt;" tags="Background" id="25">
          <mxCell style="verticalAlign=middle;align=center;overflow=width;vsdxID=168;fillColor=none;gradientColor=none;shape=stencil(nZBLDoAgDERP0z3SIyjew0SURgSD+Lu9kMZoXLhwN9O+tukAlrNpJg1SzDH4QW/URgNYgZTkjA4UkwJUgGXng+6DX1zLfmoymdXo17xh5zmRJ6Q42BWCfc2oJfdAr+Yv+AP9Cb7OJ3H/2JG1HNGz/84klThPVCc=);strokeColor=#000000;strokeWidth=2;points=[[0.17,1,0],[1,0.5,0],[0.6,0,0],[0,0.5,0],[0.5,0.5,0]];labelBackgroundColor=none;rounded=0;html=1;whiteSpace=wrap;fontFamily=Garamond;" parent="1" vertex="1">
            <mxGeometry x="571" y="264" width="393" height="34" as="geometry" />
          </mxCell>
        </UserObject>
        <UserObject label="&lt;div style=&quot;font-size: 1px&quot;&gt;&lt;font style=&quot;font-size: 16.93px; color: rgb(0, 0, 0); direction: ltr; letter-spacing: 0px; line-height: 120%; opacity: 1;&quot;&gt;C1&lt;br&gt;&lt;/font&gt;&lt;/div&gt;" tags="Background" id="26">
          <mxCell style="verticalAlign=middle;align=center;overflow=width;vsdxID=179;fillColor=none;gradientColor=none;shape=stencil(nZBNDoUgDIRP0z3SeAKf3sNElEYEg/h3+wdpjIaFC3cz9OukDGC16HZWIMUSvBvVTl3QgD+QkqxWnkJUgDVg1TuvBu9W27Gf20QmNbktJRy8V4q0IsXJthDsG2YN2Qd7DS+4fGGz3Bfyc2Z2axT3J3syhjt6zvNS4hMXivUf);strokeColor=#000000;points=[[1,0.5,0],[0.5,0,0],[0.5,0.5,0]];labelBackgroundColor=none;rounded=0;html=1;whiteSpace=wrap;fontFamily=Garamond;" parent="1" vertex="1">
            <mxGeometry x="742" y="177" width="71" height="47" as="geometry" />
          </mxCell>
        </UserObject>
        <UserObject label="&lt;div style=&quot;font-size: 1px&quot;&gt;&lt;font style=&quot;font-size: 16.93px; color: rgb(0, 0, 0); direction: ltr; letter-spacing: 0px; line-height: 120%; opacity: 1;&quot;&gt;C1: Is there any missing parameter?&lt;br&gt;&lt;/font&gt;&lt;/div&gt;" tags="Background" id="29">
          <mxCell style="verticalAlign=middle;align=center;overflow=width;vsdxID=206;fillColor=none;gradientColor=none;shape=stencil(nZBLDoAgDERP0z3SIyjew0SURgSD+Lu9kMZoXLhwN9O+tukAlrNpJg1SzDH4QW/URgNYgZTkjA4UkwJUgGXng+6DX1zLfmoymdXo17xh5zmRJ6Q42BWCfc2oJfdAr+Yv+AP9Cb7OJ3H/2JG1HNGz/84klThPVCc=);strokeColor=none;strokeWidth=2;points=[];labelBackgroundColor=none;rounded=0;html=1;whiteSpace=wrap;fontFamily=Garamond;" parent="1" vertex="1">
            <mxGeometry x="109" y="140" width="180" height="68" as="geometry" />
          </mxCell>
        </UserObject>
        <UserObject label="&lt;div style=&quot;font-size: 1px&quot;&gt;&lt;font style=&quot;font-size: 16.93px; color: rgb(0, 0, 0); direction: ltr; letter-spacing: 0px; line-height: 120%; opacity: 1;&quot;&gt;Dialogue Interface&lt;br&gt;&lt;/font&gt;&lt;/div&gt;" tags="Background" id="30">
          <mxCell style="verticalAlign=middle;align=center;overflow=width;vsdxID=207;fillColor=none;gradientColor=none;shape=stencil(nZBLDoAgDERP0z3SIyjew0SURgSD+Lu9kMZoXLhwN9O+tukAlrNpJg1SzDH4QW/URgNYgZTkjA4UkwJUgGXng+6DX1zLfmoymdXo17xh5zmRJ6Q42BWCfc2oJfdAr+Yv+AP9Cb7OJ3H/2JG1HNGz/84klThPVCc=);strokeColor=#000000;points=[[0.5,1,0],[1,0.5,0],[0.5,0,0],[0,0.5,0],[0.5,0.5,0]];labelBackgroundColor=none;rounded=0;html=1;whiteSpace=wrap;fontFamily=Garamond;" parent="1" vertex="1">
            <mxGeometry x="172" y="557" width="117" height="47" as="geometry" />
          </mxCell>
        </UserObject>
        <UserObject label="" tags="Background" id="31">
          <mxCell style="vsdxID=208;fillColor=none;gradientColor=none;strokeColor=none;points=[];labelBackgroundColor=none;rounded=0;html=1;whiteSpace=wrap;fontFamily=Garamond;" parent="1" vertex="1">
            <mxGeometry x="31" y="541" width="69.21" height="110" as="geometry" />
          </mxCell>
        </UserObject>
        <mxCell id="32" style="vsdxID=209;fillColor=#000000;gradientColor=none;fillOpacity=0;shape=stencil(vZbJUsMwDIafJsdqLMvrGcp7ZCBtM4Sm44bt7XFIHSqH+gS5OZJ++4u1jCu6Ox/qU1NJcR5C/9y8t0/DoaL7Ssr2eGhCO8RVRduK7nZ9aPahfz0+Td+neowcVy/927jDx6QzHoQdVVJ8ThaJIPDb8jAJuvZ4LUDwxAUakK4FdXiM3nARKBhdY3z4TBZ9OTLtKQD5lga8u4Rs6o/2vAn9UA9tf5z8YvJ1ddg3m3jcZtfVe+Y6vzfNaWH+FVDL+QoSoTagkCFql/+2EmBxLUbjQBFntApQccaYOckZNWj/f4y8MrQAr/nxlDJ9S2B53hUC6tsC6cDyH4wWLJwQ68hkAg9UiLegDSdSQO62QLDg2BtUwM+CCURh59gTRjEBisLlJ2cKthpsAWURropN72MTcxgrQBXovQaVlaIAVxLEEcBvnmzK3a8dgR6s4x0RJ1c69BJk/aJgJBhacbI4zCaLBYk5o8kmcLwq+6eMWLhHkQplZkQEoxmji42cFeNqo8/PI2zmE0Ce3+HcpYlPrIhHSzxehkbn7RNjnFoLMR7m1SLFjqe49BD4F8a4+HmU7Nqum9401/78ERNN0wOItl8=);strokeColor=none;strokeWidth=0;shadow=1;spacingTop=-3;spacingBottom=-3;spacingLeft=-3;spacingRight=-3;points=[];labelBackgroundColor=none;rounded=0;html=1;whiteSpace=wrap;fontFamily=Garamond;" parent="31" vertex="1">
          <mxGeometry y="2" width="63" height="58" as="geometry" />
        </mxCell>
        <mxCell id="33" style="vsdxID=210;fillColor=#cc6633;gradientColor=none;shape=stencil(fZDBDsIgEES/hitZWA5wrvU/mpQKEaGhaPXvBTkIJvY2u/tmkh2Cw2amVRMOW4rhqnc7J0PwRDi33uhoU1YER4LDEqK+xHD3c53XqZBF3cKjJDyrD4qDw6tOUlEpP5tzhZ31DSypkB0P/1kGfTRjlKuDaE4RewMcpAugjHW4ElSy1pDF9+nFOlc7a++/JeVVLRjHNw==);strokeColor=none;strokeWidth=0;spacingTop=-3;spacingBottom=-3;spacingLeft=-3;spacingRight=-3;points=[];labelBackgroundColor=none;rounded=0;html=1;whiteSpace=wrap;fontFamily=Garamond;" parent="31" vertex="1">
          <mxGeometry x="56" y="24" width="4" height="19" as="geometry" />
        </mxCell>
        <mxCell id="34" style="vsdxID=211;fillColor=#f6f8b0;gradientColor=#dab971;gradientDirection=north;shape=stencil(dZDNDgIhDISfpleCVKue1/U9NllWGhE2LP69vRBiBKO3afvNJFPAbjHDrEHJJQZ/1nceowE8gFLsjA4ckwLsAbvJB30K/urGMs9DJrO6+FtOeBSfzA4ln/V0LKBlV4Er2aJbKWj/H19vBO4awzvgJ57CqKGJBFLNJ/HpMLG15QX1/btzWpV/Yf8C);strokeColor=none;strokeWidth=0;spacingTop=-3;spacingBottom=-3;spacingLeft=-3;spacingRight=-3;points=[];labelBackgroundColor=none;rounded=0;html=1;whiteSpace=wrap;fontFamily=Garamond;" parent="31" vertex="1">
          <mxGeometry x="56" y="24" width="3" height="2" as="geometry" />
        </mxCell>
        <mxCell id="35" style="vsdxID=212;fillColor=#f6f8b0;gradientColor=#dab971;shape=stencil(hZDNDsIgEISfZq/NylqM51rfo0mpEBEaSv15e8GNsRgbb7s730xggJpJd6MCgVMM/qxupo8a6ABCGKdVMDFNQC1QM/igTsHPrud97DKZp4u/5oQ7+zA7BD54o321q1+XI8PWuAWc5FoWBlyHN1hmS6y2Yh1Psiyz3wE/8T/vTsPnx4Oxlgtb6t8NpRO3S+0T);strokeColor=none;strokeWidth=0;spacingTop=-3;spacingBottom=-3;spacingLeft=-3;spacingRight=-3;points=[];labelBackgroundColor=none;rounded=0;html=1;whiteSpace=wrap;fontFamily=Garamond;" parent="31" vertex="1">
          <mxGeometry y="24" width="63" height="35" as="geometry" />
        </mxCell>
        <mxCell id="36" style="vsdxID=213;fillColor=#cc6633;gradientColor=none;shape=stencil(rZJNDoMgEIVPw3aCgFDW1t7DRKykVgxif25fKTGVtpIuupsZvvcyQx6ixdhWg0IEj86ak7rq2rWI7hEhum+V1W6uEC0RLRpj1dGaqa9DP1Se9NXZXLzDLeiwVxB8Dx0DJp6DQ2A73a9YjoGziM8wTuM8wmUO+TYfr5IwTu8c3ycZcBHzGWTsf1t/4SXI3bZg+bMFpwJIwv8DJyD4Nv7DvXPxSkOjuy6Eaf3+np55FJJHywc=);strokeColor=#cc6633;strokeWidth=0;spacingTop=-3;spacingBottom=-3;spacingLeft=-3;spacingRight=-3;points=[];labelBackgroundColor=none;rounded=0;html=1;whiteSpace=wrap;fontFamily=Garamond;" parent="31" vertex="1">
          <mxGeometry y="38" width="63" height="22" as="geometry" />
        </mxCell>
        <mxCell id="37" style="vsdxID=214;fillColor=#FFFFFF;gradientColor=#a8dbf0;shape=stencil(dZDBDsIgEES/Zq9kyyYq51r/o0mpEBEailX/XpA0ggm3YebtZhmgflXjIoHjGry7yaeeggI6A+faKul1iApoAOpn5+XVu4ed8nsZE5nU3W1pwyvPETLiaYrjOzvIutPXuGTeaFvwWLFcMNFmDzGtd3eIbXwPd/gYL2nT8XAU9eElHMXvy7M2JjdW5v8VRSvXS8MH);strokeColor=#1e4182;strokeWidth=0;spacingTop=-3;spacingBottom=-3;spacingLeft=-3;spacingRight=-3;points=[];labelBackgroundColor=none;rounded=0;html=1;whiteSpace=wrap;fontFamily=Garamond;" parent="31" vertex="1">
          <mxGeometry x="25" y="35" width="18" height="10" as="geometry" />
        </mxCell>
        <mxCell id="38" style="vsdxID=215;fillColor=#dcf1fa;gradientColor=#5b9bd5;shape=stencil(vZPNbsMgDICfhmMs/gPnrnsP1JIELQsRYWv39iUi1eJI2227Gfsz+eQYIk7L4GZPOF1yim/+Fq55IOKFcB6mwaeQS0TEmYhTF5PvU/yYrvU8u5Vco/f4ud5wr31MgGnXLk6/aqZlUBOvlR/DhHktMc+BmZ8bKIKlBopgly6lmjaYGwWq1mnaWpi1IDfFDZOgFLqWMVBsQxp3D0uTYnY5xAlJjC71vimfbLrR9ai03Lyfd2n2i6SGVh0cDWiDFQVIgR0pGPlfjqbMmWNHTZ+jfzpaBpbjf2nA6r9zxJthLLTtYUR0j5fge227MI516/f145qXVH0i4vwA);strokeColor=none;strokeWidth=0;spacingTop=-3;spacingBottom=-3;spacingLeft=-3;spacingRight=-3;points=[];labelBackgroundColor=none;rounded=0;html=1;whiteSpace=wrap;fontFamily=Garamond;" parent="31" vertex="1">
          <mxGeometry x="37" y="15" width="16" height="23" as="geometry" />
        </mxCell>
        <mxCell id="39" style="vsdxID=216;fillColor=#f7f3e8;gradientColor=#a8dbf0;gradientDirection=east;shape=stencil(tVPbTsMwDP2aPNbKPc3zGP8RsbSNCE2VZqz8PSlZYaEICYm92cfH9rFlI3aYBzNZRPGcYni2F3dKA2IPiFI3Dja6lC3EjogduhBtH8N5PBV/MitztV7C61phKXlSA+ZrFsVvBSEYf/iPhW7iU47Fjd6ClIUer3wtgJECXUlcghRVTSE+kaUxi5ubGJJJLowlXjpib2Jvm9yx6bzpq9B8sXbawT9qFAykrjUqDoJWGnGljxHQ+n76vBtvVp6bkXrlLdD2z/Owah6loN2NxP91JPLrWWi1OwvFK4nbYW0KlQDO7qcwG19H3znvy8/cxr8/SYbKg7HjOw==);strokeColor=none;strokeWidth=0;spacingTop=-3;spacingBottom=-3;spacingLeft=-3;spacingRight=-3;points=[];labelBackgroundColor=none;rounded=0;html=1;whiteSpace=wrap;fontFamily=Garamond;" parent="31" vertex="1">
          <mxGeometry x="38" y="13" width="17" height="12" as="geometry" />
        </mxCell>
        <mxCell id="40" style="vsdxID=217;fillColor=#a8dbf0;gradientColor=#5b9bd5;shape=stencil(vZTNbsIwDMefpsdadpLm48zYe0QjhWhdi9Iy2NsvXYDhSuw0uLn+287Ple1Krsad34dK4Dil4T0c42baVfKlEiL2u5DilK1Kriu5aocUtmk49Jvyvfdz5Gx9DJ9zhVPJswTGzlkCv4qnAe1+HK8l3qe3LKZzPClz0TFdMhyI4rkUNeAUK0rZo88xtT/FsU7D5Kc49EXHonU+bUOdX6zbzm+ZNB5D2N+46T6jIwtOcEapLUhO6QTohlEa90RKYQTQgpLQARpGSerayzUIn8VIVijLEY3MRGgZYx4ZwxClBvzfH4l/jaQGaRYjaa9I5ygEJRljpkb5OMYu9jdrhvxpBUrdb0hrIOL9CA0NXzGCxi33lh43F9n4PSFt7LpygW715cnJrnKu5Pob);strokeColor=none;strokeWidth=0;spacingTop=-3;spacingBottom=-3;spacingLeft=-3;spacingRight=-3;points=[];labelBackgroundColor=none;rounded=0;html=1;whiteSpace=wrap;fontFamily=Garamond;" parent="31" vertex="1">
          <mxGeometry x="51" y="21" width="6" height="16" as="geometry" />
        </mxCell>
        <mxCell id="41" style="vsdxID=218;fillColor=#4974ba;gradientColor=none;shape=stencil(hZDdDoIwDIWfprekayPRa8T3IGG4xbmRMf/ens3GCEbj3Wn7naanwM1kulED4ZRiOOmb7ZMB3gOR9UZHm7ICboGbIUR9jOHie6nHrpBFncO1bLiLD4uD8CHVhipWz85BYGf9Ala4xvE3ulNVvV3BL/NX/M8ZWbwDDNY5yb+cfwbOLXkWtzM=);strokeColor=none;strokeWidth=0;spacingTop=-3;spacingBottom=-3;spacingLeft=-3;spacingRight=-3;points=[];labelBackgroundColor=none;rounded=0;html=1;whiteSpace=wrap;fontFamily=Garamond;" parent="31" vertex="1">
          <mxGeometry x="51" y="36" width="4" height="5" as="geometry" />
        </mxCell>
        <mxCell id="42" style="vsdxID=219;fillColor=#FFFFFF;gradientColor=#da8c36;shape=stencil(vZPdTsMwDIWfJpe1Eru/12O8R8TSNqI0lZux8vYkZGhLEdyxO9vHx/lkOYIO66gXI1Cunt2rudiTHwU9CUQ7j4atD5Ggo6BD79gM7M7zKeWLjp0xenPvccKWfB2BKqML5UeqYAcdfVWek0HzS1D5aqAgp36+GioJMcfb0BqB2mxo2367tkJvdi3Yee2tm5MskzZpHkwR3iv6SQ+ZtF6MWe7K6nfCEqGqd4gEVZMjQltnhI0ERY9CjEssf24xR6QGaswYlQKFj1zjnjGsscoY/zqff2EMwe2UeztN6Sfc6/vTD6X0bej4CQ==);strokeColor=none;strokeWidth=0;spacingTop=-3;spacingBottom=-3;spacingLeft=-3;spacingRight=-3;points=[];labelBackgroundColor=none;rounded=0;html=1;whiteSpace=wrap;fontFamily=Garamond;" parent="31" vertex="1">
          <mxGeometry x="36" y="37" width="8" height="6" as="geometry" />
        </mxCell>
        <mxCell id="43" style="vsdxID=220;fillColor=#5b9bd5;gradientColor=#4974ba;gradientDirection=east;shape=stencil(tVLLUsUgDP0als3wFFhfr//BeGnLWEuHorf+vSBVG3Vc6S6cc5KchBBxWke3eMLpmlN88NdwySMRt4TzMI8+hVwiIs5EnPqY/JDi03xp78VVZY0e43OtsLU8DvKmJnH60gAmgYs35K7ppzAjvZFIrxQwedS7dF/YtOuF+khIe4bmoBuya6QEY1FRy96L0q1zW1i7FLPLIc6Np42bXBp8Vxp2/eQGRK1X75dv8I8WGaUgFPbIqQBlkMsiQx61hvr8L4947daC0qj9LwMZC4LheZgpG8XzSKAG/zwHZf90IHb0WILPI+zDNLUbPvJfj7ZA7eDF+RU=);strokeColor=none;strokeWidth=0;spacingTop=-3;spacingBottom=-3;spacingLeft=-3;spacingRight=-3;points=[];labelBackgroundColor=none;rounded=0;html=1;whiteSpace=wrap;fontFamily=Garamond;" parent="31" vertex="1">
          <mxGeometry x="43" y="14" width="6" height="3" as="geometry" />
        </mxCell>
        <mxCell id="44" style="vsdxID=221;fillColor=#5b9bd5;gradientColor=none;shape=stencil(rVLLksIgEPwajqECAxrPrv4HpSShlg2pCWr8e4nECqRK9+JtHt0zzdAE9kOrek14OXh0v/pmzr4l8EM4N12r0fgQETgQ2NcOdYPu0p1j3qsJOUV/7jpNGCNvV1HJJhYv77FSPrNjBFvTJWCxxkpGJU/xCk+hizOeb+i2igScGVxSOZfGdN9rYrXoGQs1mqFA55U3rsvQVmGji7CtqK1qstZw07pPyuyDPkE5rPQBZSLTB5IKyDWK5Q3f0fjh5qzMDyQqKuR7+D//GYLFCbWxNhop7a+dE0rRdXB4AA==);strokeColor=none;strokeWidth=0;spacingTop=-3;spacingBottom=-3;spacingLeft=-3;spacingRight=-3;points=[];labelBackgroundColor=none;rounded=0;html=1;whiteSpace=wrap;fontFamily=Garamond;" parent="31" vertex="1">
          <mxGeometry x="43" y="34" width="8" height="9" as="geometry" />
        </mxCell>
        <mxCell id="45" style="vsdxID=222;fillColor=#5b9bd5;gradientColor=none;shape=stencil(fZDNDsIgEISfZq8E2aLpudb3aFIqRISG4k/fvuDaSI3xNrP7zSS7gM2ku1GB4FMM/qIepo8a8AhCGKdVMDEpwBawGXxQ5+Bvric/dpnM6urvueFJuYphzgg+k99x/vIngq1xBbwuV1jiO/2Trg9M1Bv+T/W2uNozKUs4ic8Fg7GWHlDuvy9OI/oWtgs=);strokeColor=none;strokeWidth=0;spacingTop=-3;spacingBottom=-3;spacingLeft=-3;spacingRight=-3;points=[];labelBackgroundColor=none;rounded=0;html=1;whiteSpace=wrap;fontFamily=Garamond;" parent="31" vertex="1">
          <mxGeometry x="32" y="27" width="7" height="8" as="geometry" />
        </mxCell>
        <mxCell id="46" style="vsdxID=223;fillColor=#FFFFFF;gradientColor=#da8c36;shape=stencil(zVPbDoIwDP2aPc6MDeIHIP7HIgMWJyNlCv69WzoUvL0YjW89Paft2dISkfeN7BThrHdg92rQpWuI2BDOddso0M5HRBRE5JUFVYM9tiXiTgZliA72FDqMWJcwFmo4OyPOEG5RK2HnKYjaLF0JFENUp+sV45gaF/VTu2v7kcpR9xSsk07bFtnIGQm1on4WrYysF1Q/KNXN0sln7p6+9Ufekkdz4t3X/Ze5F3vyFXvLDaU8W0yecBT74LbblTYGT2PO39+CT+EdieIC);strokeColor=#d75139;strokeWidth=0;spacingTop=-3;spacingBottom=-3;spacingLeft=-3;spacingRight=-3;points=[];labelBackgroundColor=none;rounded=0;html=1;whiteSpace=wrap;fontFamily=Garamond;" parent="31" vertex="1">
          <mxGeometry x="41" y="2" width="11" height="13" as="geometry" />
        </mxCell>
        <mxCell id="47" style="vsdxID=224;fillColor=#FFFFFF;gradientColor=none;shape=stencil(vVTBbsMgDP2aHGOBDYGcu+4/0EpTtCypSLp2fz8ykrXuFE2Ttt2M/R5+2MYFbYaDO/oCxTDG/tmfw248FPRQIIbu4GMYk1XQtqDNvo++if2p2+Xz0U3IyXrpX6cbLpknJgaKt3xCBKU+PI8Z7OJTisYZbGpTQ0WZEmeOTCwLZLJ3RqKG2rKr50SX0l3CUMZ+dGPoOxZrXWx8mVKW+9Y1LDScvT9+cc8i29DdvIgMoGSppQBB6wQJQjG8kqAZ/kcl42ApOLxCMGpdi7Yg8E48eytviFRQSd6OpIcs64XSIHhBagKkv+sH12iXYl4nhkBUXGL9CZoxtgJb/6pEuS4RKQ2BVFwlaW2WuVl0WguGj7VO/cT/Gu1vhykZ14++D22b98Rt/H4xJFdeKrR9Bw==);strokeColor=none;strokeWidth=0;spacingTop=-3;spacingBottom=-3;spacingLeft=-3;spacingRight=-3;points=[];labelBackgroundColor=none;rounded=0;html=1;whiteSpace=wrap;fontFamily=Garamond;" parent="31" vertex="1">
          <mxGeometry x="32" y="26" width="19" height="12" as="geometry" />
        </mxCell>
        <mxCell id="48" style="vsdxID=225;fillColor=none;gradientColor=none;shape=stencil(xZfbkpswDIafhstofJBl+3q7fQ+mSxKmNGQI7WbfvqIObmQmzGxnQu/AtuxP4pdkKvtyOdbnpjLqMg799+a9fRuPlf1SGdOejs3QjvxU2dfKvuz7oTkM/c/TW3o/19PK6elH/2va4ZrsTASrJyujPtKI1xD9n5GvyaBrT/cGATAIA6fBxHuDT59QGIjFQYPSKzgR3GL3QP+8u1xMAcgJA0II4THO0sBb8Cv8qAELJAv2fn09fOPJ4bZeR1Apdmq4GWgNlOI/b2odaJKbEtyidN3V1/ayG/qxHtv+lKZVmuvq4dDs+MDdvqsPYury3jTnxfAjREMLxKAFolEg3Y5ZRVsgKrAoESmPzEFEIKmsGIHsVojGzF8sB9GCk4jIUrESkcDTZlHELPaZMUAMApEUYBFFBOuehyjTKzrwslpxxpNe9wkXPnnhE+sgYJnkFLYKO5+mc35ncRAzhILTQ4yyVCOg34oTXe4UM6Xxc/WcGYMC7wWj3Uy/wWUlzoDO5GZ1ze2EpII4+hGfxygFzMc72VC44yE9dooL2aL6EijZIDgJjNyV17gnZmXBiLlKZUZuWVIZLuSv8yEO2oQPiyLAdaGobNxkvfmPMfRZhZnRgzaCkVNQS0ZWD21WfVmLWn5Cy1I0K9XXgLfSKa4YwiW+OAR5t0E2euLNQbrEl5sg+5nzq/mI3Mix6OSTtoPMSCX25FumeZ5Hn77j8sPf/4d923Xp9+N+vvzf4KH0r2JffwM=);strokeColor=#1e4182;strokeWidth=0;spacingTop=-3;spacingBottom=-3;spacingLeft=-3;spacingRight=-3;points=[];labelBackgroundColor=none;rounded=0;html=1;whiteSpace=wrap;fontFamily=Garamond;" parent="31" vertex="1">
          <mxGeometry x="32" y="2" width="25" height="41" as="geometry" />
        </mxCell>
        <mxCell id="49" style="vsdxID=226;fillColor=#1e4182;gradientColor=none;shape=stencil(jZNBcsMgDEVPw1YDEga0TtN7ZCZOzdS1M47TNrcPlEWtZKDdyfL7sr4sKdpdhsO5V6gv6zK/91/xuA6KXhRinIZ+iWuKFO0V7U7z0r8t83U6lufzIZM5+pg/c4XvoiMCzCLUt5LwDpz5ybwWfozThtcC7gJg91/YERDV4dRJF4QgGOBGK0nAJAUOvG0IAhhpNliwWBc4B2iEgBnY1QVG6ycHdZotBFneM6Bv98OyH9seEYN7cKzBNAykmXr5BV2H0QF7Aadf2C7+x67J3cx2n6YftnwKfhf7FMex3MX2/eMhpFQ5ItrfAQ==);strokeColor=#1e4182;strokeWidth=0;spacingTop=-3;spacingBottom=-3;spacingLeft=-3;spacingRight=-3;points=[];labelBackgroundColor=none;rounded=0;html=1;whiteSpace=wrap;fontFamily=Garamond;" parent="31" vertex="1">
          <mxGeometry x="25" y="26" width="19" height="21" as="geometry" />
        </mxCell>
        <mxCell id="50" style="vsdxID=227;fillColor=#f7f3e8;gradientColor=#a8dbf0;gradientDirection=east;shape=stencil(hZDRDoIwDEW/pq9LWWNgz4j/QcJwi3MjA1H/3s2GCCbi2217erdeoHo07aBB4jjFcNF3200G6AhSWm90tFNSQA1Q3YeozzHcfMf10GYyq2uYs8OD91QhUOUtiU/uFIjv+sS4s36F4wYtRXX4zVaipA2+47s8uqAKd63//jqJz8W9dY4DW8+/E0otTpeaFw==);strokeColor=none;strokeWidth=0;spacingTop=-3;spacingBottom=-3;spacingLeft=-3;spacingRight=-3;points=[];labelBackgroundColor=none;rounded=0;html=1;whiteSpace=wrap;fontFamily=Garamond;" parent="31" vertex="1">
          <mxGeometry x="16" y="18" width="15" height="8" as="geometry" />
        </mxCell>
        <mxCell id="51" style="vsdxID=228;fillColor=#FFFFFF;gradientColor=#5b9bd5;shape=stencil(vVNLEoIwDD1NlzCl5SNrxXt0pEBHpEyoAre3GFBQGVa6S/Jektc0IXzfFKKWhNHGgD7LVqWmIPxAGFNVIUEZaxGeEL7PNMgc9LVK0a/FwBysi74NFTrM8ygdchjt0Q+oS71H5Ih0ASeLwkj3AzeKMAH6qYLnRgxjEyt2492i7LNN54hONQ5oI4zSFaIjVgrIpWMbOlkp8gXUtFLWs/CGRP4pMeQLiWuv/pNA/4vAcGOGf53g7ssnBwuB65vzE4nWeO1wpsoST2COv++8DeG98OQO);strokeColor=#1e4182;strokeWidth=0;spacingTop=-3;spacingBottom=-3;spacingLeft=-3;spacingRight=-3;points=[];labelBackgroundColor=none;rounded=0;html=1;whiteSpace=wrap;fontFamily=Garamond;" parent="31" vertex="1">
          <mxGeometry x="17" y="41" width="13" height="6" as="geometry" />
        </mxCell>
        <mxCell id="52" style="vsdxID=229;fillColor=#FFFFFF;gradientColor=#5b9bd5;shape=stencil(fZDBDsIgEES/Zq8EWS3hXOt/NCkVIkJDqdq/L4QYwVhvM7tvNjCA7az6SQKjc/DuJp96CArwDIxpq6TXISrADrAdnZdX7xY7ZD/1iUzq7h7pwivnaEowupbukkGjbQFywiu0EeR03McPtL789j9hQYloKpwJwnE/8OfVUXz+OmpjclXl/rubOMq9YrcB);strokeColor=#1e4182;strokeWidth=0;spacingTop=-3;spacingBottom=-3;spacingLeft=-3;spacingRight=-3;points=[];labelBackgroundColor=none;rounded=0;html=1;whiteSpace=wrap;fontFamily=Garamond;" parent="31" vertex="1">
          <mxGeometry x="16" y="19" width="15" height="25" as="geometry" />
        </mxCell>
        <mxCell id="53" style="vsdxID=230;fillColor=#FFFFFF;gradientColor=#a8dbf0;shape=stencil(rVLLDoIwEPyaHmloVwk9+/iPRgo0VkqWKvj3FlsiYNSLt92d6UwnuwR2XS1bRXjaObRn1evC1QT2hHPd1Aq18xWBA4FdaVFVaK9NEfpWjsyxutjbqDCEdxlQJsZXPL2HSfrsjoEs8eQRjOQNZ1RAYGOkM5FTERWGucKkJ7zDNuKJHHSXoHXSadss2EZipRLvl5RGVguo65Vq38bxh0Y3sziQ0Zwv7Fn6NRCnLF8HEpSxRaBJY9L0JvDXROxzoh8L8sVrtaU2JlzGHF+fgh+FM4LDAw==);strokeColor=#1e4182;strokeWidth=0;spacingTop=-3;spacingBottom=-3;spacingLeft=-3;spacingRight=-3;points=[];labelBackgroundColor=none;rounded=0;html=1;whiteSpace=wrap;fontFamily=Garamond;" parent="31" vertex="1">
          <mxGeometry x="18" y="34" width="6" height="12" as="geometry" />
        </mxCell>
        <mxCell id="54" style="vsdxID=231;fillColor=#1e4182;gradientColor=none;shape=stencil(tVTLboQwDPyaHInygpDzdvsfUTdAVEpQyHbZv29oti0GUXooN8f2xDMjy4ifhkb3BjEyBO9ezc1eQoP4E2LMdo3xNsQI8TPip8p5U3t37S7p3eupc4re3Pv0w5hwucBCTChG7ilDPl/Pqbm13bxZ4VKC5kJhLrYBrFgCyhJTOQdo/xKr/gGgiuCcJYS/f+UoLh4cd1iTMdOjHTLvgg7WdaDWal+bLM7LqlbXoDTcjOlnaTpnCA1TCisFPSixKLcliRzLAioSBSYcCBKrX6NoSo8TteYo1hwp4Eg2VB/CD+4RHC0l5juG86WYHbcp+d8FIr/Tk2uv4YJ/81lJPoQhdPsPKx6Dn4tS2bZNB2leX16gmErXi58/AA==);strokeColor=#1e4182;strokeWidth=0;spacingTop=-3;spacingBottom=-3;spacingLeft=-3;spacingRight=-3;points=[];labelBackgroundColor=none;rounded=0;html=1;whiteSpace=wrap;fontFamily=Garamond;" parent="31" vertex="1">
          <mxGeometry x="17" y="35" width="13" height="13" as="geometry" />
        </mxCell>
        <mxCell id="55" style="vsdxID=232;fillColor=none;gradientColor=none;shape=stencil(vZbNkpswDMefhmM08odsfN5u34PpkoQpDRmHdnffvqIGGpmNp4cuNyLpL/9sWYor83Q7N9e20ngb4/C9fe1exnNlvlRad5dzG7uRvyrzXJmn4xDbUxx+Xl7S72szRU5fP4ZfU4a3pHMB0E8qje/JohWg+mP5mgR9d7kXKAhGCgiUuRc08Rt74yywYFM6jO+Lxc9LLjkRlEzpINRzyKF5626HOIzN2A2X5Mfk65t4ag+83OHYNyfhur227XVj/hgwgHWSkAxQLRCpzrdtEbzai1GhBm0lpFJM4CQl105LSgIKn0cp7wYhBJLL80H6osDLylsFih4LdA1ebpAtqrAC3ySXCQKYQrwHcpLIgqkfC1AEc3eYAn4WbAALmbkrnBUChYXDX5xLsCfwBZRNuC22fbDr/VsECLZAHwhsdhUR6pKAh4A8eeOX2n3YE5rzZZNFayArOsKHzYXR4MxefUt2BVpnC0/ckDO6bAbz1vx/ZVSPGacx4vPRshLNQbVZN7LG7HWIXEKT8eGmzmuXLny4Hx7RBm+eAmsvU94+HFPbvRC5njpD1Muf9r+8BD4FkT/+vkqOXd+nR829P3/FsCm9gMzzbw==);strokeColor=#c8c8c8;spacingTop=-3;spacingBottom=-3;spacingLeft=-3;spacingRight=-3;points=[];labelBackgroundColor=none;rounded=0;html=1;whiteSpace=wrap;fontFamily=Garamond;" parent="31" vertex="1">
          <mxGeometry y="2" width="63" height="58" as="geometry" />
        </mxCell>
        <mxCell id="56" value="&lt;div style=&quot;font-size: 1px&quot;&gt;&lt;font style=&quot;font-size: 16.93px; color: rgb(0, 0, 0); direction: ltr; letter-spacing: 0px; line-height: 120%; opacity: 1;&quot;&gt;Domain expert&lt;br&gt;&lt;/font&gt;&lt;/div&gt;" style="text;vsdxID=208;fillColor=none;gradientColor=none;strokeColor=none;points=[];labelBackgroundColor=none;rounded=0;html=1;whiteSpace=wrap;verticalAlign=middle;align=center;overflow=width;;html=1;fontFamily=Garamond;" parent="31" vertex="1">
          <mxGeometry x="-6.04" y="63" width="75.25" height="47" as="geometry" />
        </mxCell>
        <UserObject label="&lt;div style=&quot;&quot;&gt;&lt;p style=&quot;text-align: center; margin: 0px; text-indent: 0px; vertical-align: middle; direction: ltr;&quot;&gt;&lt;font style=&quot;color: rgb(0, 0, 0); direction: ltr; letter-spacing: 0px; line-height: 120%; opacity: 1; font-size: 18px;&quot;&gt;Dependency Parser&lt;/font&gt;&lt;font style=&quot;font-size: 16.93px; color: rgb(0, 0, 0); direction: ltr; letter-spacing: 0px; line-height: 120%; opacity: 1;&quot;&gt;&lt;br&gt;&lt;/font&gt;&lt;/p&gt;&lt;/div&gt;" tags="Background" id="57">
          <mxCell style="verticalAlign=middle;align=center;overflow=width;vsdxID=235;fillColor=#FBE5D5;gradientColor=none;shape=stencil(nZBLDoAgDERP0z3SIyjew0SURgSD+Lu9kMZoXLhwN9O+tukAlrNpJg1SzDH4QW/URgNYgZTkjA4UkwJUgGXng+6DX1zLfmoymdXo17xh5zmRJ6Q42BWCfc2oJfdAr+Yv+AP9Cb7OJ3H/2JG1HNGz/84klThPVCc=);strokeColor=#000000;points=[[0.5,1,0],[0.72,1,0],[0.5,0,0],[0,0.5,0],[0.5,0.5,0]];labelBackgroundColor=none;rounded=0;html=1;whiteSpace=wrap;fontFamily=Garamond;" parent="1" vertex="1">
            <mxGeometry x="837" y="382" width="152" height="36" as="geometry" />
          </mxCell>
        </UserObject>
        <UserObject label="&lt;div style=&quot;font-size: 1px&quot;&gt;&lt;/div&gt;" tags="Connector" id="132">
          <mxCell style="vsdxID=266;edgeStyle=none;startArrow=none;endArrow=block;startSize=5;endSize=5;strokeColor=#000000;spacingTop=0;spacingBottom=0;spacingLeft=0;spacingRight=0;verticalAlign=middle;html=1;labelBackgroundColor=none;rounded=0;align=center;fontFamily=Garamond;" parent="1" edge="1">
            <mxGeometry relative="1" as="geometry">
              <mxPoint x="12" as="offset" />
              <Array as="points" />
              <mxPoint x="874" y="534" as="sourcePoint" />
              <mxPoint x="874" y="419" as="targetPoint" />
            </mxGeometry>
          </mxCell>
        </UserObject>
        <UserObject label="&lt;div style=&quot;font-size: 1px&quot;&gt;&lt;p style=&quot;text-align:center;margin-left:0;margin-right:0;margin-top:0px;margin-bottom:0px;text-indent:0;vertical-align:middle;direction:ltr;&quot;&gt;&lt;font style=&quot;font-size: 16.93px; color: rgb(0, 0, 0); direction: ltr; letter-spacing: 0px; line-height: 120%; opacity: 1;&quot;&gt;Parameter list&lt;br&gt;&lt;/font&gt;&lt;/p&gt;&lt;/div&gt;" tags="Background" id="92">
          <mxCell style="verticalAlign=middle;align=center;overflow=width;vsdxID=315;fillColor=none;gradientColor=none;shape=stencil(nZBLDoAgDERP0z3SIyjew0SURgSD+Lu9kMZoXLhwN9O+tukAlrNpJg1SzDH4QW/URgNYgZTkjA4UkwJUgGXng+6DX1zLfmoymdXo17xh5zmRJ6Q42BWCfc2oJfdAr+Yv+AP9Cb7OJ3H/2JG1HNGz/84klThPVCc=);strokeColor=none;strokeWidth=2;points=[];labelBackgroundColor=none;rounded=0;html=1;whiteSpace=wrap;fontFamily=Garamond;" parent="1" vertex="1">
            <mxGeometry x="1045" y="231" width="108" height="28" as="geometry" />
          </mxCell>
        </UserObject>
        <UserObject label="&lt;div style=&quot;font-size: 1px&quot;&gt;&lt;p style=&quot;text-align:center;margin-left:0;margin-right:0;margin-top:0px;margin-bottom:0px;text-indent:0;vertical-align:middle;direction:ltr;&quot;&gt;&lt;font style=&quot;font-size: 16.93px; color: rgb(0, 0, 0); direction: ltr; letter-spacing: 0px; line-height: 120%; opacity: 1;&quot;&gt;responses&lt;br&gt;&lt;/font&gt;&lt;/p&gt;&lt;/div&gt;" tags="Connector" id="93">
          <mxCell style="vsdxID=314;edgeStyle=none;startArrow=none;endArrow=block;startSize=5;endSize=5;strokeColor=#000000;spacingTop=0;spacingBottom=0;spacingLeft=0;spacingRight=0;verticalAlign=middle;html=1;labelBackgroundColor=none;rounded=0;align=center;exitX=0;exitY=0.5;exitDx=0;exitDy=0;entryX=0.2564102564102564;entryY=0;entryDx=0;entryDy=0;entryPerimeter=0;fontFamily=Garamond;" parent="1" source="o7ViBReji3FSx2XDsB9Z-133" target="30" edge="1">
            <mxGeometry x="0.9426" y="38" relative="1" as="geometry">
              <mxPoint y="-1" as="offset" />
              <Array as="points">
                <mxPoint x="202" y="220" />
              </Array>
              <mxPoint x="355" y="164" as="sourcePoint" />
            </mxGeometry>
          </mxCell>
        </UserObject>
        <mxCell id="105" style="fontFamily=Garamond;" parent="1" vertex="1">
          <mxGeometry x="947" y="417" as="geometry" />
        </mxCell>
        <UserObject label="" tags="Connector" id="106">
          <mxCell style="vsdxID=248;edgeStyle=none;startArrow=none;endArrow=block;startSize=5;endSize=5;strokeColor=#000000;spacingTop=0;spacingBottom=0;spacingLeft=0;spacingRight=0;verticalAlign=middle;html=1;labelBackgroundColor=none;rounded=0;exitX=0.5060240963855421;exitY=0;exitDx=0;exitDy=0;exitPerimeter=0;fontFamily=Garamond;" parent="1" source="16" target="105" edge="1">
            <mxGeometry relative="1" as="geometry">
              <mxPoint x="12" y="-1" as="offset" />
              <Array as="points" />
            </mxGeometry>
          </mxCell>
        </UserObject>
        <mxCell id="107" style="fontFamily=Garamond;" parent="1" vertex="1">
          <mxGeometry x="291" y="582" as="geometry" />
        </mxCell>
        <UserObject label="&lt;div style=&quot;font-size: 1px&quot;&gt;&lt;p style=&quot;text-align:center;margin-left:0;margin-right:0;margin-top:0px;margin-bottom:0px;text-indent:0;vertical-align:middle;direction:ltr;&quot;&gt;&lt;font style=&quot;font-size: 16.93px; color: rgb(0, 0, 0); direction: ltr; letter-spacing: 0px; line-height: 120%; opacity: 1;&quot;&gt;notifies&lt;br&gt;&lt;/font&gt;&lt;/p&gt;&lt;/div&gt;" tags="Connector" id="108">
          <mxCell style="vsdxID=234;edgeStyle=none;startArrow=none;endArrow=block;startSize=5;endSize=5;strokeColor=#000000;spacingTop=0;spacingBottom=0;spacingLeft=0;spacingRight=0;verticalAlign=middle;html=1;labelBackgroundColor=none;rounded=0;align=center;entryX=0;entryY=0.49473684210526314;entryDx=0;entryDy=0;entryPerimeter=0;fontFamily=Garamond;" parent="1" source="107" target="19" edge="1">
            <mxGeometry relative="1" as="geometry">
              <mxPoint x="-9" y="15" as="offset" />
              <Array as="points" />
            </mxGeometry>
          </mxCell>
        </UserObject>
        <mxCell id="109" style="fontFamily=Garamond;" parent="1" vertex="1">
          <mxGeometry x="604" y="201" as="geometry" />
        </mxCell>
        <UserObject label="&lt;div style=&quot;font-size: 1px&quot;&gt;&lt;font style=&quot;font-size: 16.93px; color: rgb(0, 0, 0); direction: ltr; letter-spacing: 0px; line-height: 120%; opacity: 1;&quot;&gt;Yes&lt;br&gt;&lt;/font&gt;&lt;/div&gt;" tags="Connector" id="110">
          <mxCell style="vsdxID=187;edgeStyle=none;startArrow=none;endArrow=block;startSize=5;endSize=5;strokeColor=#000000;spacingTop=0;spacingBottom=0;spacingLeft=0;spacingRight=0;verticalAlign=middle;html=1;labelBackgroundColor=none;rounded=0;align=center;exitX=0;exitY=0.5106382978723404;exitDx=0;exitDy=0;exitPerimeter=0;fontFamily=Garamond;" parent="1" source="26" edge="1">
            <mxGeometry relative="1" as="geometry">
              <mxPoint x="8" y="17" as="offset" />
              <Array as="points" />
              <mxPoint x="544" y="200" as="targetPoint" />
            </mxGeometry>
          </mxCell>
        </UserObject>
        <UserObject label="&lt;div style=&quot;font-size: 1px&quot;&gt;&lt;font style=&quot;font-size: 16.93px; color: rgb(0, 0, 0); direction: ltr; letter-spacing: 0px; line-height: 120%; opacity: 1;&quot;&gt;No. Produces the &lt;br&gt;parameter list&lt;br&gt;&lt;/font&gt;&lt;/div&gt;" tags="Connector" id="111">
          <mxCell style="vsdxID=186;edgeStyle=none;startArrow=none;endArrow=block;startSize=5;endSize=5;strokeColor=#000000;spacingTop=0;spacingBottom=0;spacingLeft=0;spacingRight=0;verticalAlign=middle;html=1;labelBackgroundColor=none;rounded=0;align=center;exitX=1;exitY=0.5106382978723404;exitDx=0;exitDy=0;exitPerimeter=0;entryX=0;entryY=0.5227272727272727;entryDx=0;entryDy=0;entryPerimeter=0;fontFamily=Garamond;" parent="1" source="26" edge="1">
            <mxGeometry relative="1" as="geometry">
              <mxPoint x="-13" y="23" as="offset" />
              <Array as="points" />
              <mxPoint x="1069" y="200.9999999999999" as="targetPoint" />
            </mxGeometry>
          </mxCell>
        </UserObject>
        <mxCell id="112" style="fontFamily=Garamond;" parent="1" vertex="1">
          <mxGeometry x="778" y="282" as="geometry" />
        </mxCell>
        <UserObject label="" tags="Connector" id="113">
          <mxCell style="vsdxID=185;edgeStyle=none;startArrow=none;endArrow=block;startSize=5;endSize=5;strokeColor=#000000;spacingTop=0;spacingBottom=0;spacingLeft=0;spacingRight=0;verticalAlign=middle;html=1;labelBackgroundColor=none;rounded=0;entryX=0.5070422535211268;entryY=1;entryDx=0;entryDy=0;entryPerimeter=0;fontFamily=Garamond;" parent="1" target="26" edge="1">
            <mxGeometry relative="1" as="geometry">
              <mxPoint x="12" as="offset" />
              <Array as="points" />
              <mxPoint x="778" y="260" as="sourcePoint" />
            </mxGeometry>
          </mxCell>
        </UserObject>
        <mxCell id="114" style="fontFamily=Garamond;" parent="1" vertex="1">
          <mxGeometry x="947" y="300" as="geometry" />
        </mxCell>
        <UserObject label="&lt;div style=&quot;font-size: 1px&quot;&gt;&lt;font style=&quot;font-size: 16.93px; color: rgb(0, 0, 0); direction: ltr; letter-spacing: 0px; line-height: 120%; opacity: 1;&quot;&gt;Dependencies &lt;br&gt;&lt;/font&gt;&lt;/div&gt;" tags="Connector" id="115">
          <mxCell style="vsdxID=184;edgeStyle=none;startArrow=none;endArrow=block;startSize=5;endSize=5;strokeColor=#000000;spacingTop=0;spacingBottom=0;spacingLeft=0;spacingRight=0;verticalAlign=middle;html=1;labelBackgroundColor=none;rounded=0;align=center;exitX=0.506578947368421;exitY=0;exitDx=0;exitDy=0;exitPerimeter=0;fontFamily=Garamond;" parent="1" edge="1">
            <mxGeometry x="0.2683" y="-60" relative="1" as="geometry">
              <mxPoint as="offset" />
              <Array as="points" />
              <mxPoint x="937" y="382" as="sourcePoint" />
              <mxPoint x="937" y="300" as="targetPoint" />
            </mxGeometry>
          </mxCell>
        </UserObject>
        <mxCell id="116" style="fontFamily=Garamond;" parent="1" vertex="1">
          <mxGeometry x="777" y="301" as="geometry" />
        </mxCell>
        <UserObject label="&lt;div style=&quot;font-size: 1px&quot;&gt;&lt;p style=&quot;text-align:center;margin-left:0;margin-right:0;margin-top:0px;margin-bottom:0px;text-indent:0;vertical-align:middle;direction:ltr;&quot;&gt;&lt;font style=&quot;font-size: 16.93px; color: rgb(0, 0, 0); direction: ltr; letter-spacing: 0px; line-height: 120%; opacity: 1;&quot;&gt;Entities&lt;br&gt;&lt;/font&gt;&lt;/p&gt;&lt;/div&gt;" tags="Connector" id="117">
          <mxCell style="vsdxID=183;edgeStyle=none;startArrow=none;endArrow=block;startSize=5;endSize=5;strokeColor=#000000;spacingTop=0;spacingBottom=0;spacingLeft=0;spacingRight=0;verticalAlign=middle;html=1;labelBackgroundColor=none;rounded=0;align=center;exitX=0.714;exitY=-0.004;exitDx=0;exitDy=0;exitPerimeter=0;fontFamily=Garamond;" parent="1" source="14" edge="1">
            <mxGeometry x="0.284" y="-33" relative="1" as="geometry">
              <mxPoint as="offset" />
              <Array as="points" />
              <mxPoint x="776.4399999999998" y="377.51599999999996" as="sourcePoint" />
              <mxPoint x="777" y="299" as="targetPoint" />
            </mxGeometry>
          </mxCell>
        </UserObject>
        <mxCell id="118" style="fontFamily=Garamond;" parent="1" vertex="1">
          <mxGeometry x="606" y="302" as="geometry" />
        </mxCell>
        <UserObject label="&lt;div style=&quot;font-size: 1px&quot;&gt;&lt;p style=&quot;text-align:center;margin-left:0;margin-right:0;margin-top:0px;margin-bottom:0px;text-indent:0;vertical-align:middle;direction:ltr;&quot;&gt;&lt;font style=&quot;font-size: 16.93px; color: rgb(0, 0, 0); direction: ltr; letter-spacing: 0px; line-height: 120%; opacity: 1;&quot;&gt;Target domain&lt;br&gt;&lt;/font&gt;&lt;/p&gt;&lt;/div&gt;" tags="Connector" id="119">
          <mxCell style="vsdxID=182;edgeStyle=none;startArrow=none;endArrow=block;startSize=5;endSize=5;strokeColor=#000000;spacingTop=0;spacingBottom=0;spacingLeft=0;spacingRight=0;verticalAlign=middle;html=1;labelBackgroundColor=none;rounded=0;align=center;exitX=0.692;exitY=-0.004;exitDx=0;exitDy=0;exitPerimeter=0;fontFamily=Garamond;entryX=0.081;entryY=1.023;entryDx=0;entryDy=0;entryPerimeter=0;" parent="1" source="15" target="25" edge="1">
            <mxGeometry x="0.3" y="-54" relative="1" as="geometry">
              <mxPoint as="offset" />
              <Array as="points" />
              <mxPoint x="600" y="298" as="targetPoint" />
            </mxGeometry>
          </mxCell>
        </UserObject>
        <UserObject label="" tags="Connector" id="120">
          <mxCell style="vsdxID=71;edgeStyle=none;startArrow=none;endArrow=block;startSize=5;endSize=5;strokeColor=#000000;spacingTop=0;spacingBottom=0;spacingLeft=0;spacingRight=0;verticalAlign=middle;html=1;labelBackgroundColor=none;rounded=0;exitX=1.0105263157894737;exitY=0.5263157894736842;exitDx=0;exitDy=0;exitPerimeter=0;entryX=0;entryY=0.5263157894736842;entryDx=0;entryDy=0;entryPerimeter=0;fontFamily=Garamond;" parent="1" source="20" target="24" edge="1">
            <mxGeometry relative="1" as="geometry">
              <mxPoint x="1" as="offset" />
              <Array as="points" />
            </mxGeometry>
          </mxCell>
        </UserObject>
        <UserObject label="" tags="Connector" id="121">
          <mxCell style="vsdxID=74;edgeStyle=none;startArrow=none;endArrow=block;startSize=5;endSize=5;strokeColor=#000000;spacingTop=0;spacingBottom=0;spacingLeft=0;spacingRight=0;verticalAlign=middle;html=1;labelBackgroundColor=none;rounded=0;exitX=1.0092592592592593;exitY=0.5263157894736842;exitDx=0;exitDy=0;exitPerimeter=0;entryX=0;entryY=0.5263157894736842;entryDx=0;entryDy=0;entryPerimeter=0;fontFamily=Garamond;" parent="1" source="21" target="22" edge="1">
            <mxGeometry relative="1" as="geometry">
              <mxPoint x="1" as="offset" />
              <Array as="points" />
            </mxGeometry>
          </mxCell>
        </UserObject>
        <UserObject label="" tags="Connector" id="122">
          <mxCell style="vsdxID=150;edgeStyle=none;startArrow=none;endArrow=block;startSize=5;endSize=5;strokeColor=#000000;spacingTop=0;spacingBottom=0;spacingLeft=0;spacingRight=0;verticalAlign=middle;html=1;labelBackgroundColor=none;rounded=0;exitX=1.0105263157894737;exitY=0.5263157894736842;exitDx=0;exitDy=0;exitPerimeter=0;entryX=0;entryY=0.5263157894736842;entryDx=0;entryDy=0;entryPerimeter=0;fontFamily=Garamond;" parent="1" source="24" target="21" edge="1">
            <mxGeometry relative="1" as="geometry">
              <mxPoint x="1" as="offset" />
              <Array as="points" />
            </mxGeometry>
          </mxCell>
        </UserObject>
        <mxCell id="125" style="fontFamily=Garamond;" parent="1" vertex="1">
          <mxGeometry x="541" y="535" as="geometry" />
        </mxCell>
        <UserObject label="" tags="Connector" id="126">
          <mxCell style="vsdxID=158;edgeStyle=none;startArrow=none;endArrow=block;startSize=5;endSize=5;strokeColor=#000000;spacingTop=0;spacingBottom=0;spacingLeft=0;spacingRight=0;verticalAlign=middle;html=1;labelBackgroundColor=none;rounded=0;entryX=0.2894736842105263;entryY=1.0277777777777777;entryDx=0;entryDy=0;entryPerimeter=0;fontFamily=Garamond;" parent="1" source="125" target="15" edge="1">
            <mxGeometry relative="1" as="geometry">
              <mxPoint x="12" y="-1" as="offset" />
              <Array as="points" />
            </mxGeometry>
          </mxCell>
        </UserObject>
        <UserObject label="&lt;div style=&quot;font-size: 1px&quot;&gt;&lt;p style=&quot;text-align:center;margin-left:0;margin-right:0;margin-top:0px;margin-bottom:0px;text-indent:0;vertical-align:middle;direction:ltr;&quot;&gt;&lt;font style=&quot;font-size: 16.93px; color: rgb(0, 0, 0); direction: ltr; letter-spacing: 0px; line-height: 120%; opacity: 1;&quot;&gt;interacts&lt;br&gt;&lt;/font&gt;&lt;/p&gt;&lt;/div&gt;" tags="Connector" id="127">
          <mxCell style="vsdxID=233;edgeStyle=none;startArrow=block;endArrow=block;startSize=5;endSize=5;strokeColor=#000000;spacingTop=0;spacingBottom=0;spacingLeft=0;spacingRight=0;verticalAlign=middle;html=1;labelBackgroundColor=none;rounded=0;align=center;entryX=0;entryY=0.5106382978723404;entryDx=0;entryDy=0;entryPerimeter=0;fontFamily=Garamond;" parent="1" target="30" edge="1">
            <mxGeometry relative="1" as="geometry">
              <mxPoint y="17" as="offset" />
              <Array as="points" />
              <mxPoint x="90" y="582" as="sourcePoint" />
            </mxGeometry>
          </mxCell>
        </UserObject>
        <mxCell id="128" style="fontFamily=Garamond;" parent="1" vertex="1">
          <mxGeometry x="788" y="418" as="geometry" />
        </mxCell>
        <UserObject label="" tags="Connector" id="129">
          <mxCell style="vsdxID=138;edgeStyle=none;startArrow=none;endArrow=block;startSize=5;endSize=5;strokeColor=#000000;spacingTop=0;spacingBottom=0;spacingLeft=0;spacingRight=0;verticalAlign=middle;html=1;labelBackgroundColor=none;rounded=0;exitX=0.5060240963855421;exitY=0;exitDx=0;exitDy=0;exitPerimeter=0;fontFamily=Garamond;" parent="1" source="17" target="128" edge="1">
            <mxGeometry relative="1" as="geometry">
              <mxPoint x="12" as="offset" />
              <Array as="points" />
            </mxGeometry>
          </mxCell>
        </UserObject>
        <mxCell id="o7ViBReji3FSx2XDsB9Z-135" value="" style="shape=image;html=1;verticalAlign=top;verticalLabelPosition=bottom;labelBackgroundColor=#ffffff;imageAspect=0;aspect=fixed;image=https://cdn1.iconfinder.com/data/icons/bootstrap-vol-3/16/filetype-xml-128.png" parent="1" vertex="1">
          <mxGeometry x="1070" y="169.5" width="63" height="63" as="geometry" />
        </mxCell>
      </root>
    </mxGraphModel>
  </diagram>
</mxfile>
